<svg width="1080" height="600" viewBox="0 0 1080 600" fill="none" xmlns="http://www.w3.org/2000/svg">
<rect width="1080" height="600" fill="#1A1A1A" fill-opacity="0.5"/>
<path d="M86.8543 89.3371V101.786H33.5714V89.3371H53.9886V78.7171H66.4371V89.3371H86.8543ZM60.2143 72.4971C72.5628 72.4971 82.4743 62.8371 82.4743 50.32C82.4743 37.8029 72.5628 28.1429 60.2143 28.1429C47.8657 28.1429 37.9543 37.8029 37.9543 50.32C37.9543 62.8371 47.8657 72.4971 60.2143 72.4971ZM60.2143 60.2314C54.7543 60.2314 50.5543 56.2828 50.5543 50.32C50.5543 44.3571 54.7543 40.4086 60.2143 40.4086C65.6743 40.4086 69.8743 44.3571 69.8743 50.32C69.8743 56.2828 65.6714 60.2314 60.2143 60.2314Z" fill="#662D91" fill-opacity="0.1"/>
<path d="M86.8543 279.337V291.786H33.5714V279.337H53.9886V268.717H66.4371V279.337H86.8543ZM60.2143 262.497C72.5628 262.497 82.4743 252.837 82.4743 240.32C82.4743 227.803 72.5628 218.143 60.2143 218.143C47.8657 218.143 37.9543 227.803 37.9543 240.32C37.9543 252.837 47.8657 262.497 60.2143 262.497ZM60.2143 250.231C54.7543 250.231 50.5543 246.283 50.5543 240.32C50.5543 234.357 54.7543 230.409 60.2143 230.409C65.6743 230.409 69.8743 234.357 69.8743 240.32C69.8743 246.283 65.6714 250.231 60.2143 250.231Z" fill="#662D91" fill-opacity="0.1"/>
<path d="M86.8543 469.337V481.786H33.5714V469.337H53.9886V458.717H66.4371V469.337H86.8543ZM60.2143 452.497C72.5628 452.497 82.4743 442.837 82.4743 430.32C82.4743 417.803 72.5628 408.143 60.2143 408.143C47.8657 408.143 37.9543 417.803 37.9543 430.32C37.9543 442.837 47.8657 452.497 60.2143 452.497ZM60.2143 440.231C54.7543 440.231 50.5543 436.283 50.5543 430.32C50.5543 424.357 54.7543 420.409 60.2143 420.409C65.6743 420.409 69.8743 424.357 69.8743 430.32C69.8743 436.283 65.6714 440.231 60.2143 440.231Z" fill="#662D91" fill-opacity="0.1"/>
<path d="M246.854 89.3371V101.786H193.571V89.3371H213.989V78.7171H226.437V89.3371H246.854ZM220.214 72.4971C232.563 72.4971 242.474 62.8371 242.474 50.32C242.474 37.8029 232.563 28.1429 220.214 28.1429C207.866 28.1429 197.954 37.8029 197.954 50.32C197.954 62.8371 207.866 72.4971 220.214 72.4971ZM220.214 60.2314C214.754 60.2314 210.554 56.2828 210.554 50.32C210.554 44.3571 214.754 40.4086 220.214 40.4086C225.674 40.4086 229.874 44.3571 229.874 50.32C229.874 56.2828 225.671 60.2314 220.214 60.2314Z" fill="#662D91" fill-opacity="0.1"/>
<path d="M246.854 279.337V291.786H193.571V279.337H213.989V268.717H226.437V279.337H246.854ZM220.214 262.497C232.563 262.497 242.474 252.837 242.474 240.32C242.474 227.803 232.563 218.143 220.214 218.143C207.866 218.143 197.954 227.803 197.954 240.32C197.954 252.837 207.866 262.497 220.214 262.497ZM220.214 250.231C214.754 250.231 210.554 246.283 210.554 240.32C210.554 234.357 214.754 230.409 220.214 230.409C225.674 230.409 229.874 234.357 229.874 240.32C229.874 246.283 225.671 250.231 220.214 250.231Z" fill="#662D91" fill-opacity="0.1"/>
<path d="M246.854 469.337V481.786H193.571V469.337H213.989V458.717H226.437V469.337H246.854ZM220.214 452.497C232.563 452.497 242.474 442.837 242.474 430.32C242.474 417.803 232.563 408.143 220.214 408.143C207.866 408.143 197.954 417.803 197.954 430.32C197.954 442.837 207.866 452.497 220.214 452.497ZM220.214 440.231C214.754 440.231 210.554 436.283 210.554 430.32C210.554 424.357 214.754 420.409 220.214 420.409C225.674 420.409 229.874 424.357 229.874 430.32C229.874 436.283 225.671 440.231 220.214 440.231Z" fill="#662D91" fill-opacity="0.1"/>
<path d="M406.854 89.3371V101.786H353.571V89.3371H373.989V78.7171H386.437V89.3371H406.854ZM380.214 72.4971C392.563 72.4971 402.474 62.8371 402.474 50.32C402.474 37.8029 392.563 28.1429 380.214 28.1429C367.866 28.1429 357.954 37.8029 357.954 50.32C357.954 62.8371 367.866 72.4971 380.214 72.4971ZM380.214 60.2314C374.754 60.2314 370.554 56.2828 370.554 50.32C370.554 44.3571 374.754 40.4086 380.214 40.4086C385.674 40.4086 389.874 44.3571 389.874 50.32C389.874 56.2828 385.671 60.2314 380.214 60.2314Z" fill="#662D91" fill-opacity="0.1"/>
<path d="M406.854 279.337V291.786H353.571V279.337H373.989V268.717H386.437V279.337H406.854ZM380.214 262.497C392.563 262.497 402.474 252.837 402.474 240.32C402.474 227.803 392.563 218.143 380.214 218.143C367.866 218.143 357.954 227.803 357.954 240.32C357.954 252.837 367.866 262.497 380.214 262.497ZM380.214 250.231C374.754 250.231 370.554 246.283 370.554 240.32C370.554 234.357 374.754 230.409 380.214 230.409C385.674 230.409 389.874 234.357 389.874 240.32C389.874 246.283 385.671 250.231 380.214 250.231Z" fill="#662D91" fill-opacity="0.1"/>
<path d="M406.854 469.337V481.786H353.571V469.337H373.989V458.717H386.437V469.337H406.854ZM380.214 452.497C392.563 452.497 402.474 442.837 402.474 430.32C402.474 417.803 392.563 408.143 380.214 408.143C367.866 408.143 357.954 417.803 357.954 430.32C357.954 442.837 367.866 452.497 380.214 452.497ZM380.214 440.231C374.754 440.231 370.554 436.283 370.554 430.32C370.554 424.357 374.754 420.409 380.214 420.409C385.674 420.409 389.874 424.357 389.874 430.32C389.874 436.283 385.671 440.231 380.214 440.231Z" fill="#662D91" fill-opacity="0.1"/>
<path d="M566.854 89.3371V101.786H513.571V89.3371H533.989V78.7171H546.437V89.3371H566.854ZM540.214 72.4971C552.563 72.4971 562.474 62.8371 562.474 50.32C562.474 37.8029 552.563 28.1429 540.214 28.1429C527.866 28.1429 517.954 37.8029 517.954 50.32C517.954 62.8371 527.866 72.4971 540.214 72.4971ZM540.214 60.2314C534.754 60.2314 530.554 56.2828 530.554 50.32C530.554 44.3571 534.754 40.4086 540.214 40.4086C545.674 40.4086 549.874 44.3571 549.874 50.32C549.874 56.2828 545.671 60.2314 540.214 60.2314Z" fill="#662D91" fill-opacity="0.1"/>
<path d="M566.854 279.337V291.786H513.571V279.337H533.989V268.717H546.437V279.337H566.854ZM540.214 262.497C552.563 262.497 562.474 252.837 562.474 240.32C562.474 227.803 552.563 218.143 540.214 218.143C527.866 218.143 517.954 227.803 517.954 240.32C517.954 252.837 527.866 262.497 540.214 262.497ZM540.214 250.231C534.754 250.231 530.554 246.283 530.554 240.32C530.554 234.357 534.754 230.409 540.214 230.409C545.674 230.409 549.874 234.357 549.874 240.32C549.874 246.283 545.671 250.231 540.214 250.231Z" fill="#662D91" fill-opacity="0.1"/>
<path d="M566.854 469.337V481.786H513.571V469.337H533.989V458.717H546.437V469.337H566.854ZM540.214 452.497C552.563 452.497 562.474 442.837 562.474 430.32C562.474 417.803 552.563 408.143 540.214 408.143C527.866 408.143 517.954 417.803 517.954 430.32C517.954 442.837 527.866 452.497 540.214 452.497ZM540.214 440.231C534.754 440.231 530.554 436.283 530.554 430.32C530.554 424.357 534.754 420.409 540.214 420.409C545.674 420.409 549.874 424.357 549.874 430.32C549.874 436.283 545.671 440.231 540.214 440.231Z" fill="#662D91" fill-opacity="0.1"/>
<path d="M726.854 89.3371V101.786H673.571V89.3371H693.989V78.7171H706.437V89.3371H726.854ZM700.214 72.4971C712.563 72.4971 722.474 62.8371 722.474 50.32C722.474 37.8029 712.563 28.1429 700.214 28.1429C687.866 28.1429 677.954 37.8029 677.954 50.32C677.954 62.8371 687.866 72.4971 700.214 72.4971ZM700.214 60.2314C694.754 60.2314 690.554 56.2828 690.554 50.32C690.554 44.3571 694.754 40.4086 700.214 40.4086C705.674 40.4086 709.874 44.3571 709.874 50.32C709.874 56.2828 705.671 60.2314 700.214 60.2314Z" fill="#662D91" fill-opacity="0.1"/>
<path d="M726.854 279.337V291.786H673.571V279.337H693.989V268.717H706.437V279.337H726.854ZM700.214 262.497C712.563 262.497 722.474 252.837 722.474 240.32C722.474 227.803 712.563 218.143 700.214 218.143C687.866 218.143 677.954 227.803 677.954 240.32C677.954 252.837 687.866 262.497 700.214 262.497ZM700.214 250.231C694.754 250.231 690.554 246.283 690.554 240.32C690.554 234.357 694.754 230.409 700.214 230.409C705.674 230.409 709.874 234.357 709.874 240.32C709.874 246.283 705.671 250.231 700.214 250.231Z" fill="#662D91" fill-opacity="0.1"/>
<path d="M726.854 469.337V481.786H673.571V469.337H693.989V458.717H706.437V469.337H726.854ZM700.214 452.497C712.563 452.497 722.474 442.837 722.474 430.32C722.474 417.803 712.563 408.143 700.214 408.143C687.866 408.143 677.954 417.803 677.954 430.32C677.954 442.837 687.866 452.497 700.214 452.497ZM700.214 440.231C694.754 440.231 690.554 436.283 690.554 430.32C690.554 424.357 694.754 420.409 700.214 420.409C705.674 420.409 709.874 424.357 709.874 430.32C709.874 436.283 705.671 440.231 700.214 440.231Z" fill="#662D91" fill-opacity="0.1"/>
<path d="M886.854 89.3371V101.786H833.571V89.3371H853.989V78.7171H866.437V89.3371H886.854ZM860.214 72.4971C872.563 72.4971 882.474 62.8371 882.474 50.32C882.474 37.8029 872.563 28.1429 860.214 28.1429C847.866 28.1429 837.954 37.8029 837.954 50.32C837.954 62.8371 847.866 72.4971 860.214 72.4971ZM860.214 60.2314C854.754 60.2314 850.554 56.2828 850.554 50.32C850.554 44.3571 854.754 40.4086 860.214 40.4086C865.674 40.4086 869.874 44.3571 869.874 50.32C869.874 56.2828 865.671 60.2314 860.214 60.2314Z" fill="#662D91" fill-opacity="0.1"/>
<path d="M886.854 279.337V291.786H833.571V279.337H853.989V268.717H866.437V279.337H886.854ZM860.214 262.497C872.563 262.497 882.474 252.837 882.474 240.32C882.474 227.803 872.563 218.143 860.214 218.143C847.866 218.143 837.954 227.803 837.954 240.32C837.954 252.837 847.866 262.497 860.214 262.497ZM860.214 250.231C854.754 250.231 850.554 246.283 850.554 240.32C850.554 234.357 854.754 230.409 860.214 230.409C865.674 230.409 869.874 234.357 869.874 240.32C869.874 246.283 865.671 250.231 860.214 250.231Z" fill="#662D91" fill-opacity="0.1"/>
<path d="M886.854 469.337V481.786H833.571V469.337H853.989V458.717H866.437V469.337H886.854ZM860.214 452.497C872.563 452.497 882.474 442.837 882.474 430.32C882.474 417.803 872.563 408.143 860.214 408.143C847.866 408.143 837.954 417.803 837.954 430.32C837.954 442.837 847.866 452.497 860.214 452.497ZM860.214 440.231C854.754 440.231 850.554 436.283 850.554 430.32C850.554 424.357 854.754 420.409 860.214 420.409C865.674 420.409 869.874 424.357 869.874 430.32C869.874 436.283 865.671 440.231 860.214 440.231Z" fill="#662D91" fill-opacity="0.1"/>
<path d="M1046.85 89.3371V101.786H993.571V89.3371H1013.99V78.7171H1026.44V89.3371H1046.85ZM1020.21 72.4971C1032.56 72.4971 1042.47 62.8371 1042.47 50.32C1042.47 37.8029 1032.56 28.1429 1020.21 28.1429C1007.87 28.1429 997.954 37.8029 997.954 50.32C997.954 62.8371 1007.87 72.4971 1020.21 72.4971ZM1020.21 60.2314C1014.75 60.2314 1010.55 56.2828 1010.55 50.32C1010.55 44.3571 1014.75 40.4086 1020.21 40.4086C1025.67 40.4086 1029.87 44.3571 1029.87 50.32C1029.87 56.2828 1025.67 60.2314 1020.21 60.2314Z" fill="#662D91" fill-opacity="0.1"/>
<path d="M1046.85 279.337V291.786H993.571V279.337H1013.99V268.717H1026.44V279.337H1046.85ZM1020.21 262.497C1032.56 262.497 1042.47 252.837 1042.47 240.32C1042.47 227.803 1032.56 218.143 1020.21 218.143C1007.87 218.143 997.954 227.803 997.954 240.32C997.954 252.837 1007.87 262.497 1020.21 262.497ZM1020.21 250.231C1014.75 250.231 1010.55 246.283 1010.55 240.32C1010.55 234.357 1014.75 230.409 1020.21 230.409C1025.67 230.409 1029.87 234.357 1029.87 240.32C1029.87 246.283 1025.67 250.231 1020.21 250.231Z" fill="#662D91" fill-opacity="0.1"/>
<path d="M1046.85 469.337V481.786H993.571V469.337H1013.99V458.717H1026.44V469.337H1046.85ZM1020.21 452.497C1032.56 452.497 1042.47 442.837 1042.47 430.32C1042.47 417.803 1032.56 408.143 1020.21 408.143C1007.87 408.143 997.954 417.803 997.954 430.32C997.954 442.837 1007.87 452.497 1020.21 452.497ZM1020.21 440.231C1014.75 440.231 1010.55 436.283 1010.55 430.32C1010.55 424.357 1014.75 420.409 1020.21 420.409C1025.67 420.409 1029.87 424.357 1029.87 430.32C1029.87 436.283 1025.67 440.231 1020.21 440.231Z" fill="#662D91" fill-opacity="0.1"/>
<path d="M967.854 179.337V191.786H914.571V179.337H934.989V168.717H947.437V179.337H967.854ZM941.214 162.497C953.563 162.497 963.474 152.837 963.474 140.32C963.474 127.803 953.563 118.143 941.214 118.143C928.866 118.143 918.954 127.803 918.954 140.32C918.954 152.837 928.866 162.497 941.214 162.497ZM941.214 150.231C935.754 150.231 931.554 146.283 931.554 140.32C931.554 134.357 935.754 130.409 941.214 130.409C946.674 130.409 950.874 134.357 950.874 140.32C950.874 146.283 946.671 150.231 941.214 150.231Z" fill="#662D91" fill-opacity="0.1"/>
<path d="M967.854 369.337V381.786H914.571V369.337H934.989V358.717H947.437V369.337H967.854ZM941.214 352.497C953.563 352.497 963.474 342.837 963.474 330.32C963.474 317.803 953.563 308.143 941.214 308.143C928.866 308.143 918.954 317.803 918.954 330.32C918.954 342.837 928.866 352.497 941.214 352.497ZM941.214 340.231C935.754 340.231 931.554 336.283 931.554 330.32C931.554 324.357 935.754 320.409 941.214 320.409C946.674 320.409 950.874 324.357 950.874 330.32C950.874 336.283 946.671 340.231 941.214 340.231Z" fill="#662D91" fill-opacity="0.1"/>
<path d="M967.854 559.337V571.786H914.571V559.337H934.989V548.717H947.437V559.337H967.854ZM941.214 542.497C953.563 542.497 963.474 532.837 963.474 520.32C963.474 507.803 953.563 498.143 941.214 498.143C928.866 498.143 918.954 507.803 918.954 520.32C918.954 532.837 928.866 542.497 941.214 542.497ZM941.214 530.231C935.754 530.231 931.554 526.283 931.554 520.32C931.554 514.357 935.754 510.409 941.214 510.409C946.674 510.409 950.874 514.357 950.874 520.32C950.874 526.283 946.671 530.231 941.214 530.231Z" fill="#662D91" fill-opacity="0.1"/>
<path d="M807.854 179.337V191.786H754.571V179.337H774.989V168.717H787.437V179.337H807.854ZM781.214 162.497C793.563 162.497 803.474 152.837 803.474 140.32C803.474 127.803 793.563 118.143 781.214 118.143C768.866 118.143 758.954 127.803 758.954 140.32C758.954 152.837 768.866 162.497 781.214 162.497ZM781.214 150.231C775.754 150.231 771.554 146.283 771.554 140.32C771.554 134.357 775.754 130.409 781.214 130.409C786.674 130.409 790.874 134.357 790.874 140.32C790.874 146.283 786.671 150.231 781.214 150.231Z" fill="#662D91" fill-opacity="0.1"/>
<path d="M807.854 369.337V381.786H754.571V369.337H774.989V358.717H787.437V369.337H807.854ZM781.214 352.497C793.563 352.497 803.474 342.837 803.474 330.32C803.474 317.803 793.563 308.143 781.214 308.143C768.866 308.143 758.954 317.803 758.954 330.32C758.954 342.837 768.866 352.497 781.214 352.497ZM781.214 340.231C775.754 340.231 771.554 336.283 771.554 330.32C771.554 324.357 775.754 320.409 781.214 320.409C786.674 320.409 790.874 324.357 790.874 330.32C790.874 336.283 786.671 340.231 781.214 340.231Z" fill="#662D91" fill-opacity="0.1"/>
<path d="M807.854 559.337V571.786H754.571V559.337H774.989V548.717H787.437V559.337H807.854ZM781.214 542.497C793.563 542.497 803.474 532.837 803.474 520.32C803.474 507.803 793.563 498.143 781.214 498.143C768.866 498.143 758.954 507.803 758.954 520.32C758.954 532.837 768.866 542.497 781.214 542.497ZM781.214 530.231C775.754 530.231 771.554 526.283 771.554 520.32C771.554 514.357 775.754 510.409 781.214 510.409C786.674 510.409 790.874 514.357 790.874 520.32C790.874 526.283 786.671 530.231 781.214 530.231Z" fill="#662D91" fill-opacity="0.1"/>
<path d="M647.854 179.337V191.786H594.571V179.337H614.989V168.717H627.437V179.337H647.854ZM621.214 162.497C633.563 162.497 643.474 152.837 643.474 140.32C643.474 127.803 633.563 118.143 621.214 118.143C608.866 118.143 598.954 127.803 598.954 140.32C598.954 152.837 608.866 162.497 621.214 162.497ZM621.214 150.231C615.754 150.231 611.554 146.283 611.554 140.32C611.554 134.357 615.754 130.409 621.214 130.409C626.674 130.409 630.874 134.357 630.874 140.32C630.874 146.283 626.671 150.231 621.214 150.231Z" fill="#662D91" fill-opacity="0.1"/>
<path d="M647.854 369.337V381.786H594.571V369.337H614.989V358.717H627.437V369.337H647.854ZM621.214 352.497C633.563 352.497 643.474 342.837 643.474 330.32C643.474 317.803 633.563 308.143 621.214 308.143C608.866 308.143 598.954 317.803 598.954 330.32C598.954 342.837 608.866 352.497 621.214 352.497ZM621.214 340.231C615.754 340.231 611.554 336.283 611.554 330.32C611.554 324.357 615.754 320.409 621.214 320.409C626.674 320.409 630.874 324.357 630.874 330.32C630.874 336.283 626.671 340.231 621.214 340.231Z" fill="#662D91" fill-opacity="0.1"/>
<path d="M647.854 559.337V571.786H594.571V559.337H614.989V548.717H627.437V559.337H647.854ZM621.214 542.497C633.563 542.497 643.474 532.837 643.474 520.32C643.474 507.803 633.563 498.143 621.214 498.143C608.866 498.143 598.954 507.803 598.954 520.32C598.954 532.837 608.866 542.497 621.214 542.497ZM621.214 530.231C615.754 530.231 611.554 526.283 611.554 520.32C611.554 514.357 615.754 510.409 621.214 510.409C626.674 510.409 630.874 514.357 630.874 520.32C630.874 526.283 626.671 530.231 621.214 530.231Z" fill="#662D91" fill-opacity="0.1"/>
<path d="M487.854 179.337V191.786H434.571V179.337H454.989V168.717H467.437V179.337H487.854ZM461.214 162.497C473.563 162.497 483.474 152.837 483.474 140.32C483.474 127.803 473.563 118.143 461.214 118.143C448.866 118.143 438.954 127.803 438.954 140.32C438.954 152.837 448.866 162.497 461.214 162.497ZM461.214 150.231C455.754 150.231 451.554 146.283 451.554 140.32C451.554 134.357 455.754 130.409 461.214 130.409C466.674 130.409 470.874 134.357 470.874 140.32C470.874 146.283 466.671 150.231 461.214 150.231Z" fill="#662D91" fill-opacity="0.1"/>
<path d="M487.854 369.337V381.786H434.571V369.337H454.989V358.717H467.437V369.337H487.854ZM461.214 352.497C473.563 352.497 483.474 342.837 483.474 330.32C483.474 317.803 473.563 308.143 461.214 308.143C448.866 308.143 438.954 317.803 438.954 330.32C438.954 342.837 448.866 352.497 461.214 352.497ZM461.214 340.231C455.754 340.231 451.554 336.283 451.554 330.32C451.554 324.357 455.754 320.409 461.214 320.409C466.674 320.409 470.874 324.357 470.874 330.32C470.874 336.283 466.671 340.231 461.214 340.231Z" fill="#662D91" fill-opacity="0.1"/>
<path d="M487.854 559.337V571.786H434.571V559.337H454.989V548.717H467.437V559.337H487.854ZM461.214 542.497C473.563 542.497 483.474 532.837 483.474 520.32C483.474 507.803 473.563 498.143 461.214 498.143C448.866 498.143 438.954 507.803 438.954 520.32C438.954 532.837 448.866 542.497 461.214 542.497ZM461.214 530.231C455.754 530.231 451.554 526.283 451.554 520.32C451.554 514.357 455.754 510.409 461.214 510.409C466.674 510.409 470.874 514.357 470.874 520.32C470.874 526.283 466.671 530.231 461.214 530.231Z" fill="#662D91" fill-opacity="0.1"/>
<path d="M327.854 179.337V191.786H274.571V179.337H294.989V168.717H307.437V179.337H327.854ZM301.214 162.497C313.563 162.497 323.474 152.837 323.474 140.32C323.474 127.803 313.563 118.143 301.214 118.143C288.866 118.143 278.954 127.803 278.954 140.32C278.954 152.837 288.866 162.497 301.214 162.497ZM301.214 150.231C295.754 150.231 291.554 146.283 291.554 140.32C291.554 134.357 295.754 130.409 301.214 130.409C306.674 130.409 310.874 134.357 310.874 140.32C310.874 146.283 306.671 150.231 301.214 150.231Z" fill="#662D91" fill-opacity="0.1"/>
<path d="M327.854 369.337V381.786H274.571V369.337H294.989V358.717H307.437V369.337H327.854ZM301.214 352.497C313.563 352.497 323.474 342.837 323.474 330.32C323.474 317.803 313.563 308.143 301.214 308.143C288.866 308.143 278.954 317.803 278.954 330.32C278.954 342.837 288.866 352.497 301.214 352.497ZM301.214 340.231C295.754 340.231 291.554 336.283 291.554 330.32C291.554 324.357 295.754 320.409 301.214 320.409C306.674 320.409 310.874 324.357 310.874 330.32C310.874 336.283 306.671 340.231 301.214 340.231Z" fill="#662D91" fill-opacity="0.1"/>
<path d="M327.854 559.337V571.786H274.571V559.337H294.989V548.717H307.437V559.337H327.854ZM301.214 542.497C313.563 542.497 323.474 532.837 323.474 520.32C323.474 507.803 313.563 498.143 301.214 498.143C288.866 498.143 278.954 507.803 278.954 520.32C278.954 532.837 288.866 542.497 301.214 542.497ZM301.214 530.231C295.754 530.231 291.554 526.283 291.554 520.32C291.554 514.357 295.754 510.409 301.214 510.409C306.674 510.409 310.874 514.357 310.874 520.32C310.874 526.283 306.671 530.231 301.214 530.231Z" fill="#662D91" fill-opacity="0.1"/>
<path d="M167.854 179.337V191.786H114.571V179.337H134.989V168.717H147.437V179.337H167.854ZM141.214 162.497C153.563 162.497 163.474 152.837 163.474 140.32C163.474 127.803 153.563 118.143 141.214 118.143C128.866 118.143 118.954 127.803 118.954 140.32C118.954 152.837 128.866 162.497 141.214 162.497ZM141.214 150.231C135.754 150.231 131.554 146.283 131.554 140.32C131.554 134.357 135.754 130.409 141.214 130.409C146.674 130.409 150.874 134.357 150.874 140.32C150.874 146.283 146.671 150.231 141.214 150.231Z" fill="#662D91" fill-opacity="0.1"/>
<path d="M167.854 369.337V381.786H114.571V369.337H134.989V358.717H147.437V369.337H167.854ZM141.214 352.497C153.563 352.497 163.474 342.837 163.474 330.32C163.474 317.803 153.563 308.143 141.214 308.143C128.866 308.143 118.954 317.803 118.954 330.32C118.954 342.837 128.866 352.497 141.214 352.497ZM141.214 340.231C135.754 340.231 131.554 336.283 131.554 330.32C131.554 324.357 135.754 320.409 141.214 320.409C146.674 320.409 150.874 324.357 150.874 330.32C150.874 336.283 146.671 340.231 141.214 340.231Z" fill="#662D91" fill-opacity="0.1"/>
<path d="M167.854 559.337V571.786H114.571V559.337H134.989V548.717H147.437V559.337H167.854ZM141.214 542.497C153.563 542.497 163.474 532.837 163.474 520.32C163.474 507.803 153.563 498.143 141.214 498.143C128.866 498.143 118.954 507.803 118.954 520.32C118.954 532.837 128.866 542.497 141.214 542.497ZM141.214 530.231C135.754 530.231 131.554 526.283 131.554 520.32C131.554 514.357 135.754 510.409 141.214 510.409C146.674 510.409 150.874 514.357 150.874 520.32C150.874 526.283 146.671 530.231 141.214 530.231Z" fill="#662D91" fill-opacity="0.1"/>
</svg>
