<svg width="1206" height="600" viewBox="0 0 1206 600" fill="none" xmlns="http://www.w3.org/2000/svg">
<rect width="1206" height="600" fill="#1A1A1A"/>
<path d="M567.265 287.446V412.672H540.431V404.26C534.532 411.053 525.756 415.163 513.766 415.163C490.34 415.163 471 394.59 471 367.925C471 341.259 490.316 320.687 513.766 320.687C525.756 320.687 534.508 324.796 540.431 331.589V287.398H567.265V287.446ZM540.431 367.949C540.431 354.532 531.486 346.119 519.132 346.119C506.779 346.119 497.834 354.532 497.834 367.949C497.834 381.366 506.779 389.779 519.132 389.779C531.462 389.779 540.431 381.366 540.431 367.949Z" fill="#FEFEFE" fill-opacity="0.01"/>
<path d="M678.712 323.225V412.672H651.877V404.26C645.979 411.053 637.203 415.162 625.212 415.162C601.787 415.162 582.447 394.59 582.447 367.924C582.447 341.259 601.763 320.686 625.212 320.686C637.203 320.686 645.955 324.796 651.877 331.589V323.176H678.712V323.225ZM651.877 367.949C651.877 354.532 642.933 346.119 630.579 346.119C618.226 346.119 609.281 354.532 609.281 367.949C609.281 381.366 618.226 389.779 630.579 389.779C642.933 389.779 651.877 381.366 651.877 367.949Z" fill="#FEFEFE" fill-opacity="0.01"/>
<path d="M767.289 387.651V412.697H695.731V394.807L729.552 348.295H697.52V323.249H765.5V341.139L731.679 387.651H767.289Z" fill="#FEFEFE" fill-opacity="0.01"/>
<path d="M823.448 391.205C830.773 391.205 837.058 388.352 840.612 384.412L862.079 396.765C853.304 408.925 840.08 415.187 823.085 415.187C792.479 415.187 773.526 394.614 773.526 367.949C773.526 341.284 792.842 320.711 821.127 320.711C847.236 320.711 866.576 340.921 866.576 367.949C866.576 371.696 866.213 375.274 865.512 378.682H802.004C805.389 387.99 813.608 391.205 823.448 391.205ZM839.911 358.665C837.058 348.294 829.008 344.523 820.958 344.523C810.756 344.523 803.963 349.527 801.448 358.665H839.911Z" fill="#FEFEFE" fill-opacity="0.01"/>
<path d="M881.782 323.225H908.616V412.672H881.782V323.225Z" fill="#FEFEFE" fill-opacity="0.01"/>
<path d="M1125.64 357.771V412.697H1098.8V361.712C1098.8 350.615 1091.81 345.442 1083.23 345.442C1073.39 345.442 1066.6 351.171 1066.6 363.863V412.697H1039.77V323.249H1066.6V331.662C1071.43 325.038 1080.38 320.759 1092.18 320.759C1110.26 320.735 1125.64 333.62 1125.64 357.771Z" fill="#FEFEFE" fill-opacity="0.01"/>
<path d="M1031.52 453.166V480H916.691V453.166H960.689V430.272H987.524V453.166H1031.52ZM974.106 416.879C1000.72 416.879 1022.09 396.064 1022.09 369.085C1022.09 342.106 1000.72 321.291 974.106 321.291C947.49 321.291 926.119 342.106 926.119 369.085C926.119 396.04 947.49 416.879 974.106 416.879ZM974.106 390.431C962.333 390.431 953.292 381.922 953.292 369.061C953.292 356.2 962.333 347.69 974.106 347.69C985.88 347.69 994.921 356.2 994.921 369.061C994.921 381.922 985.88 390.431 974.106 390.431Z" fill="#662D91" fill-opacity="0.06"/>
<path d="M908.616 280H881.782V306.834H908.616V280Z" fill="#FEFEFE" fill-opacity="0.01"/>
</svg>
