<svg width="262" height="134" viewBox="0 0 262 134" fill="none" xmlns="http://www.w3.org/2000/svg">
<path d="M16.9453 133.352C20.25 133.352 23.5547 132.789 26.8594 131.664C36.6328 128.43 45.4219 123.438 53.1562 116.617C65.9531 106 76.5 93.4844 84.7969 79.0703C85.7109 77.3125 87.1172 76.4688 89.0156 76.4688H90.7734C93.375 76.3984 95.9766 76.3281 98.5781 76.3281C101.531 76.3281 104.484 76.3984 107.367 76.4688C108 76.4688 108.492 76.3281 108.914 76.0469C108.211 74.4297 106.945 73.5156 105.188 73.4453C101.742 73.2344 97.3125 73.0938 91.8984 73.0938C91.4766 73.1641 90.9844 73.1641 90.4219 73.1641C89.6484 73.1641 89.0859 73.0938 88.6641 72.8828L88.5938 72.25C88.5938 71.8984 88.8047 71.4062 89.1562 70.8438C94.0781 61 97.1719 50.5938 98.2969 39.625C98.5078 37.8672 98.5781 36.1094 98.5781 34.3516C98.5781 28.2344 97.4531 22.3281 95.2031 16.6328C91.5469 7.70312 84.9375 2.5 75.3047 1.16406C73.8281 1.02344 72.4219 0.953125 71.0156 0.953125C66.8672 0.953125 62.8594 1.58594 58.8516 2.92188C44.3672 7.5625 31.5 15.0156 20.25 25.3516C15.9609 29.0781 12.0938 33.2266 8.71875 37.7969C6.67969 40.5391 5.0625 43.4922 4.00781 46.7266C3.65625 47.9922 3.44531 49.2578 3.44531 50.5234C3.44531 51.0859 3.51562 51.6484 3.58594 52.2812C4.21875 55.4453 6.04688 57.4844 9.07031 58.2578C7.73438 56.2891 7.03125 54.3906 7.03125 52.5625C7.03125 50.2422 7.875 47.6406 9.63281 44.6875C11.25 41.8047 13.7109 38.5 17.0156 34.7734C27.8438 23.1719 40.5703 14.3828 55.2656 8.33594C61.5234 5.52344 68.1328 4.11719 75.0234 4.11719C88.3125 4.11719 94.9922 13.6094 94.9922 32.6641C94.9922 35.8281 94.7109 38.9219 94.1484 42.0859C92.5312 51.4375 89.5781 60.3672 85.2891 68.875C84.5156 70.4219 83.9531 71.5469 83.4609 72.25C82.9688 72.9531 82.2656 73.375 81.4922 73.5859C80.7188 73.7969 79.4531 74.0078 77.8359 74.1484C65.1797 75.4141 52.9453 78.3672 41.0625 83.0078L39.375 83.7109C38.8828 83.8516 38.5312 83.9219 38.25 83.9219C37.8281 83.9219 37.6172 83.4297 37.5469 82.375C37.5469 71.2656 38.3906 61 40.0078 51.6484C40.7812 46.0234 42.3984 40.6094 44.8594 35.4766C45.7031 33.7188 46.4766 32.7344 47.25 32.3828C47.6016 32.1719 48.0938 32.1016 48.7266 32.1016C49.3594 32.1016 50.2031 32.2422 51.1172 32.4531C50.2031 30.2031 48.5859 28.9375 46.4062 28.5859L45.7734 28.5156C44.5781 28.5156 43.4531 29.3594 42.3984 30.9766C40.4297 33.7891 38.8125 38.0078 37.5469 43.5625C35.0859 54.9531 33.8906 66.4844 33.8906 78.1562C33.8906 80.8984 33.9609 82.7969 34.0312 83.8516C34.0312 84.5547 34.0312 85.0469 33.9609 85.3984C33.8906 85.9609 33.2578 86.5234 32.1328 87.0156L30.4453 87.9297C30.3047 87.9297 28.8984 88.7031 26.1562 90.3203C18.7734 94.4688 12.2344 99.8125 6.67969 106.281C4.21875 109.164 2.32031 112.469 0.984375 116.125C0.351562 117.672 0 119.219 0 120.836C0 121.75 0.140625 122.734 0.351562 123.648C2.03906 128.57 5.41406 131.594 10.4062 132.648C12.5859 133.141 14.7656 133.352 16.9453 133.352ZM13.9219 130.258C12.2344 130.258 10.5469 130.117 8.85938 129.766C5.34375 129.062 3.51562 127.094 3.51562 123.789L3.58594 122.805C4.35938 116.898 7.73438 111.062 13.7109 105.227C19.7578 99.3906 25.9453 94.8906 32.4141 91.6562C32.8359 91.3047 33.1875 91.1641 33.6094 91.1641C33.8203 91.1641 34.0312 91.2344 34.3125 91.3047C34.3828 92.0781 34.4531 92.9219 34.5234 93.7656C35.2969 101.641 36 107.828 36.7734 112.258C37.0547 114.156 38.1094 115.422 39.8672 115.914C40.2188 115.633 40.3594 115.211 40.3594 114.789C40.3594 114.578 40.2891 114.297 40.1484 113.805C38.9531 106.422 38.25 98.9688 37.9688 91.4453C37.9688 91.375 37.9688 91.375 37.8984 91.375C37.8984 90.5312 37.8984 89.8984 37.9688 89.4766C38.0391 89.125 38.1797 88.7734 38.5312 88.5625C38.8828 88.3516 39.375 88.1406 40.1484 87.7891C51.5391 82.7969 63.9844 79.4219 77.4844 77.5938L80.0156 77.2422L80.0859 77.875C80.0859 78.4375 79.875 78.9297 79.5234 79.2812C70.1016 94.8203 58.0781 107.898 43.3828 118.586C36.4922 123.719 28.8281 127.375 20.4609 129.414C18.2812 129.977 16.1016 130.258 13.9219 130.258ZM108.633 82.1641V81.9531C108.633 79.4922 109.547 77.0312 111.445 74.7109C113.344 72.3906 115.734 70.9844 118.477 70.3516C115.594 74.8516 112.359 78.7891 108.633 82.1641ZM108.914 86.3828C110.32 86.3828 112.148 85.2578 114.398 82.8672L119.18 77.5234L119.883 78.6484C121.5 82.5156 123.82 84.4141 126.773 84.4141C128.32 84.4141 130.078 83.9219 131.977 82.8672C135.07 81.1094 137.953 79 140.625 76.5391C141.117 76.1172 141.398 75.625 141.398 75.2031C141.398 74.7812 141.117 74.4297 140.625 74.0078C139.992 73.375 139.43 73.0234 138.867 72.9531C138.305 72.9531 137.672 73.2344 136.969 73.8672C132.258 78.0156 128.391 80.4062 125.297 81.1797L124.664 81.25C123.82 81.25 123.328 80.7578 123.188 79.7031C123.047 78.9297 122.977 78.0859 122.977 77.2422C123.047 74.5 123.398 71.7578 124.102 69.0859C124.242 68.4531 124.312 67.9609 124.312 67.5391C124.312 66.625 123.75 65.7812 122.695 65.0781C122.273 64.7969 121.852 64.6562 121.57 64.6562C121.078 64.6562 120.797 65.0781 120.727 65.8516C120.586 66.625 120.375 67.1172 120.094 67.1875C119.742 67.3281 119.461 67.3984 119.18 67.3984C118.898 67.3984 118.477 67.3281 118.055 67.1875C117.352 67.0469 116.719 66.9062 116.016 66.9062C114.258 66.9062 112.641 67.5391 111.094 68.7344C107.227 71.8281 104.906 75.8359 104.273 80.7578V81.3203C104.273 83.2891 105.188 84.7656 107.086 85.8203C107.719 86.2422 108.352 86.3828 108.914 86.3828ZM144.211 127.023C146.391 127.023 148.5 125.828 150.398 123.508C153.492 119.852 155.602 115.141 156.727 109.375C157.359 106.984 157.641 104.594 157.641 102.203C157.641 98.6875 157.008 95.2422 155.602 91.7969C155.18 91.0234 155.039 90.3203 155.039 89.6875C155.039 88.5625 155.531 87.6484 156.516 86.8047C158.484 84.9062 161.648 81.8125 165.867 77.4531C166.148 77.2422 166.359 77.0312 166.57 76.8203C167.203 76.1875 167.555 75.6953 167.555 75.2031C167.555 74.7109 167.203 74.2188 166.5 73.5859C166.008 73.1641 165.445 72.9531 164.953 72.9531C164.391 72.9531 163.828 73.2344 163.266 73.7969C159.68 77.1016 156.164 80.6172 152.859 84.2734C152.719 84.3438 152.578 84.4844 152.438 84.6953C152.297 84.9062 152.156 85.0469 152.016 85.1875C151.805 85.3281 151.664 85.3984 151.523 85.3984C150.328 85.1172 149.203 84.3438 148.219 83.2188L148.148 82.8672C148.148 82.5859 148.359 82.1641 148.781 81.6016C150.82 79.0703 152.438 76.3984 153.703 73.4453C153.984 72.7422 154.055 72.0391 154.055 71.4062C154.055 70.4922 153.703 69.5078 153 68.3828C152.297 67.3281 150.961 66.7656 148.992 66.7656C145.898 66.7656 142.594 68.3828 138.938 71.6875C138.164 72.3203 137.742 72.9531 137.742 73.5156C137.742 74.1484 138.234 74.7812 139.289 75.4141C139.641 75.625 139.992 75.6953 140.344 75.6953C140.836 75.6953 141.398 75.4141 142.031 74.8516C144.141 72.8125 146.883 71.2656 150.188 70.2109C148.852 73.7969 147.094 76.8203 144.914 79.2812C144.07 80.4766 143.578 81.5312 143.578 82.2344C143.578 82.375 143.648 82.7266 143.789 83.1484C143.859 83.6406 144.773 84.2031 146.391 84.9766C146.672 85.1172 146.953 85.1875 147.164 85.2578C147.375 85.3281 147.656 85.3984 147.867 85.4688C149.203 85.9609 149.836 86.5234 149.836 87.0156C149.836 87.5078 149.484 88.1406 148.781 88.9141C142.734 96.1562 138.656 103.117 136.406 109.727C135.633 111.836 135.281 114.016 135.281 116.266C135.281 121.68 137.531 125.195 141.961 126.672C142.734 126.883 143.508 127.023 144.211 127.023ZM141.398 123.93C139.711 123.93 138.867 122.242 138.867 118.797C138.867 116.828 139.148 114.859 139.781 112.961C142.523 105.227 146.602 98.2656 152.016 92.1484L152.719 91.9375C153.492 93.4141 153.914 94.9609 153.914 96.5781L153.984 99.1094C153.984 105.789 152.297 111.977 148.992 117.812C147.797 120.062 146.109 121.82 143.93 123.156C142.945 123.719 142.102 123.93 141.398 123.93ZM172.828 87.5078C174.305 87.5078 175.852 87.1562 177.539 86.3828C181.688 84.0625 184.852 80.7578 186.961 76.4688C187.242 75.9062 187.383 75.4141 187.383 74.9922C187.383 74.1484 186.891 73.4453 185.906 72.8828C185.484 72.6016 185.062 72.5312 184.781 72.5312C184.289 72.5312 183.727 73.0938 183.164 74.2188C181.266 77.6641 178.734 80.4062 175.57 82.5859C173.953 83.7812 172.125 84.3438 170.086 84.4141C168.328 84.4141 167.484 83.5 167.484 81.6016C167.484 80.0547 168.117 78.9297 169.312 78.1562C171.562 77.0312 173.391 75.4844 174.867 73.4453C175.5 72.5312 175.781 71.6172 175.781 70.7031C175.781 69.8594 175.5 69.0156 175.008 68.1719C173.812 66.2734 172.266 65.2188 170.227 65.0078C168.539 65.0781 167.273 65.9219 166.5 67.6094C164.812 70.7734 163.969 74.1484 163.969 77.7344C163.969 81.6719 165.445 84.4844 168.469 86.3125C169.805 87.1562 171.281 87.5078 172.828 87.5078ZM169.523 72.3906C169.523 71.1953 170.016 70.1406 171 69.1562C171.07 68.9453 171.281 68.875 171.492 68.875C171.562 68.875 171.633 68.875 171.773 68.9453C171.914 69.0156 171.984 69.1562 171.984 69.2969C171.773 70.4922 170.93 71.5469 169.523 72.3906ZM190.547 86.3828C191.742 86.3828 193.008 85.9609 194.344 85.1172C197.719 82.6562 200.672 79.8438 203.273 76.6094C203.695 76.1172 203.906 75.625 203.906 75.2031C203.906 74.7109 203.555 74.2188 202.992 73.7266C202.289 73.0938 201.727 72.7422 201.305 72.7422C200.812 72.7422 200.32 73.0938 199.688 73.7969C196.805 77.3828 193.852 80.1953 190.828 82.2344C190.195 82.7969 189.703 83.0078 189.281 83.0078C188.367 83.0078 187.875 82.3047 187.875 80.8281V78.7891C187.875 76.5391 188.156 73.3047 188.859 68.9453C188.789 68.3125 188.438 67.75 187.875 67.1875C187.312 66.625 186.75 66.3438 186.258 66.3438C185.414 66.4844 184.992 67.1172 184.992 68.1719C184.992 68.6641 184.852 69.5781 184.641 70.8438C184.43 72.1797 184.289 74.2188 184.219 77.0312C184.219 78.6484 184.5 80.1953 184.922 81.6719C186.047 84.8359 187.875 86.3828 190.547 86.3828ZM188.859 62.4062L189.07 60.0156C189.07 58.4688 189.281 56.9922 189.633 55.5859C189.633 55.2344 189.562 54.8828 189.352 54.6016C189.141 54.25 188.789 53.9688 188.367 53.6172C187.945 53.3359 187.523 53.1953 187.172 53.1953C186.117 53.1953 185.625 53.8281 185.625 55.0938C185.625 55.1641 185.625 55.2344 185.555 55.3047L185.484 57.5547C185.484 59.4531 185.695 60.5781 186.117 61.0703C186.539 61.5625 187.453 62.0547 188.859 62.4062ZM206.789 130.047C209.039 130.047 211.078 128.852 212.906 126.531C214.523 124.211 215.719 121.75 216.492 119.078C218.953 110.852 220.43 101.992 220.922 92.5L220.852 90.3906C220.852 88.4922 221.273 86.8047 221.977 85.2578C223.453 83.2188 225.281 81.4609 227.531 79.9844L232.875 76.1172C233.508 75.7656 233.859 75.4141 233.859 74.8516C233.859 74.5 233.648 74.1484 233.227 73.7266C232.594 72.9531 231.961 72.6016 231.258 72.6016C230.484 72.6016 228.094 74.0781 224.086 77.1719L221.836 78.7891C221.484 78.5781 221.203 77.9453 220.992 76.8203C220.992 76.0469 220.852 75.1328 220.57 74.0781C219.797 71.8984 218.602 70.7734 217.125 70.7734C216.07 70.7734 214.945 71.3359 213.891 72.4609C212.484 74.0078 210.656 76.1875 208.477 78.9297C206.789 81.0391 205.453 82.4453 204.398 83.1484C204.117 82.8672 204.047 82.5156 204.047 82.1641C204.891 77.1016 207 72.4609 210.375 68.3125C211.922 66.4844 213.328 65.5703 214.664 65.5703C215.156 65.5703 215.719 65.8516 216.352 66.4141C216.844 67.1875 217.406 67.5391 217.969 67.5391C218.25 67.5391 218.531 67.4688 218.812 67.3281C218.18 65.8516 217.266 64.6562 216.07 63.8828C214.734 62.8281 213.469 62.3359 212.203 62.3359C210.445 62.3359 208.547 63.4609 206.578 65.8516C202.781 70.9141 200.602 76.3281 200.109 82.1641C200.109 83.8516 200.742 85.3281 202.078 86.5938C202.922 87.4375 203.836 87.8594 204.75 87.8594C206.438 87.8594 208.828 85.8203 211.922 81.7422L216.773 75.9062C216.844 75.9062 216.984 75.9062 217.125 75.9766C217.195 76.0469 217.336 76.1172 217.477 76.1875C217.688 77.1719 217.758 78.1562 217.758 79.0703C217.758 79.7031 217.688 80.6172 217.547 81.7422C217.406 82.7969 216.633 84.1328 215.227 85.6094C208.406 92.5 203.273 100.445 199.688 109.516C198.211 112.961 197.508 116.547 197.508 120.273C197.648 123.719 199.125 126.461 201.867 128.359C203.625 129.484 205.242 130.047 206.789 130.047ZM204.68 126.953H204.117C203.344 126.953 202.781 126.812 202.359 126.531C201.867 126.18 201.586 125.547 201.375 124.633C201.164 123.648 201.023 122.734 201.023 121.82C201.023 120.836 201.164 119.781 201.375 118.727C202.148 114.578 203.555 110.641 205.594 106.914C208.336 101.57 211.57 96.5781 215.438 92.0078C215.508 91.9375 215.578 91.8672 215.719 91.7266C215.789 91.5859 216 91.375 216.211 91.1641C216.422 90.9531 216.703 90.8125 217.125 90.7422C217.195 91.4453 217.266 92.1484 217.266 92.8516C217.266 93.9766 217.125 95.3828 216.844 97C216.211 103.891 214.875 110.359 212.977 116.336C212.203 119.078 210.938 121.68 209.18 124C208.125 125.617 206.578 126.602 204.68 126.953ZM235.336 86.5938C236.32 86.5938 237.164 85.8203 237.938 84.2734C238.711 82.7266 239.414 81.1797 240.117 79.5625C240.68 78.1562 241.312 76.75 242.016 75.3438C242.367 74.1484 243.211 72.9531 244.547 71.7578C245.25 76.3984 246.586 79.7031 248.484 81.7422C249.75 83.0078 251.086 83.6406 252.422 83.6406C253.617 83.6406 254.883 83.1484 256.148 82.0938C258.117 80.4766 259.805 78.5781 261.211 76.3984C261.633 75.9062 261.773 75.4844 261.773 74.9922C261.773 74.3594 261.352 73.6562 260.438 73.0938C259.945 72.8125 259.523 72.6016 259.172 72.6016C258.539 72.6016 258.047 73.0234 257.555 73.7969C257.062 74.5703 256.43 75.4141 255.656 76.2578C253.125 79.0703 251.367 80.4062 250.453 80.4062C250.383 80.4062 250.172 80.3359 249.82 80.2656C249.469 80.125 248.836 77.5938 247.922 72.6719C247.641 71.125 247.148 69.8594 246.445 68.9453C245.391 67.6797 244.406 67.0469 243.422 67.0469C241.453 67.0469 239.484 69.6484 237.445 74.9219L236.461 77.1719C236.109 78.2266 235.547 79 234.844 79.4219V78.5781C234.844 76.8203 235.195 75.2734 235.898 73.8672C236.039 73.5859 236.109 73.3047 236.109 73.0234C236.109 72.1797 235.547 71.4766 234.352 70.9141C234 70.7734 233.648 70.6328 233.297 70.6328C232.664 70.6328 232.242 70.9844 232.031 71.6875C231.398 73.7969 231.047 75.8359 231.047 77.9453C231.047 79.7734 231.328 81.6719 231.82 83.5C231.961 83.9922 232.242 84.4844 232.594 84.8359C233.578 86.0312 234.492 86.5938 235.336 86.5938Z" fill="white"/>
</svg>
