<svg width="195" height="265" viewBox="0 0 195 265" fill="none" xmlns="http://www.w3.org/2000/svg">
<path d="M185.523 211.436V252.21H11V211.436H77.8743V176.651H118.648V211.436H185.523ZM98.266 156.278C138.713 156.278 171.176 124.638 171.176 83.639C171.176 42.6404 138.713 11 98.266 11C57.8195 11 25.3556 42.6404 25.3556 83.639C25.3556 124.638 57.8195 156.278 98.266 156.278ZM98.266 116.103C80.3823 116.103 66.6257 103.17 66.6257 83.639C66.6257 64.1083 80.3823 51.1752 98.266 51.1752C116.15 51.1752 129.906 64.1083 129.906 83.639C129.906 103.17 116.14 116.103 98.266 116.103Z" fill="white"/>
</svg>
