<?xml version="1.0" encoding="utf-8"?>
<!-- Generator: Adobe Illustrator 24.2.3, SVG Export Plug-In . SVG Version: 6.00 Build 0)  -->
<svg version="1.1" id="Layer_1" xmlns="http://www.w3.org/2000/svg" xmlns:xlink="http://www.w3.org/1999/xlink" x="0px" y="0px"
	 viewBox="0 0 1000 1000" style="enable-background:new 0 0 1000 1000;" xml:space="preserve">
<style type="text/css">
	.st0{fill:#FFFFFF;}
</style>
<path class="st0" d="M593.18,585.14v43.57H406.69v-43.57h71.46v-37.17h43.57v37.17H593.18z M499.94,526.2
	c43.22,0,77.91-33.81,77.91-77.62s-34.69-77.62-77.91-77.62c-43.22,0-77.91,33.81-77.91,77.62S456.72,526.2,499.94,526.2z
	 M499.94,483.27c-19.11,0-33.81-13.82-33.81-34.69c0-20.87,14.7-34.69,33.81-34.69c19.11,0,33.81,13.82,33.81,34.69
	C533.75,469.45,519.04,483.27,499.94,483.27z"/>
</svg>
