<svg width="271" height="83" viewBox="0 0 271 83" fill="none" xmlns="http://www.w3.org/2000/svg">
<path d="M39.82 3.07999V54.88H28.72V51.4C26.28 54.21 22.65 55.91 17.69 55.91C8 55.91 0 47.4 0 36.37C0 25.34 7.99 16.83 17.69 16.83C22.65 16.83 26.27 18.53 28.72 21.34V3.06H39.82V3.07999ZM28.72 36.38C28.72 30.83 25.02 27.35 19.91 27.35C14.8 27.35 11.1 30.83 11.1 36.38C11.1 41.93 14.8 45.41 19.91 45.41C25.01 45.41 28.72 41.93 28.72 36.38Z" fill="#FEFEFE"/>
<path d="M85.92 17.88V54.88H74.8199V51.4C72.3799 54.21 68.7499 55.91 63.7899 55.91C54.0999 55.91 46.1 47.4 46.1 36.37C46.1 25.34 54.0899 16.83 63.7899 16.83C68.7499 16.83 72.3699 18.53 74.8199 21.34V17.86H85.92V17.88ZM74.8199 36.38C74.8199 30.83 71.1199 27.35 66.0099 27.35C60.8999 27.35 57.2 30.83 57.2 36.38C57.2 41.93 60.8999 45.41 66.0099 45.41C71.1199 45.41 74.8199 41.93 74.8199 36.38Z" fill="#FEFEFE"/>
<path d="M122.56 44.53V54.89H92.96V47.49L106.95 28.25H93.7V17.89H121.82V25.29L107.83 44.53H122.56Z" fill="#FEFEFE"/>
<path d="M145.79 46C148.82 46 151.42 44.82 152.89 43.19L161.77 48.3C158.14 53.33 152.67 55.92 145.64 55.92C132.98 55.92 125.14 47.41 125.14 36.38C125.14 25.35 133.13 16.84 144.83 16.84C155.63 16.84 163.63 25.2 163.63 36.38C163.63 37.93 163.48 39.41 163.19 40.82H136.92C138.32 44.67 141.72 46 145.79 46ZM152.6 32.54C151.42 28.25 148.09 26.69 144.76 26.69C140.54 26.69 137.73 28.76 136.69 32.54H152.6Z" fill="#FEFEFE"/>
<path d="M169.92 17.88H181.02V54.88H169.92V17.88Z" fill="#FEFEFE"/>
<path d="M270.79 32.17V54.89H259.69V33.8C259.69 29.21 256.8 27.07 253.25 27.07C249.18 27.07 246.37 29.44 246.37 34.69V54.89H235.27V17.89H246.37V21.37C248.37 18.63 252.07 16.86 256.95 16.86C264.43 16.85 270.79 22.18 270.79 32.17Z" fill="#FEFEFE"/>
<path d="M231.86 71.63V82.73H184.36V71.63H202.56V62.16H213.66V71.63H231.86ZM208.11 56.62C219.12 56.62 227.96 48.01 227.96 36.85C227.96 25.69 219.12 17.08 208.11 17.08C197.1 17.08 188.26 25.69 188.26 36.85C188.26 48 197.1 56.62 208.11 56.62ZM208.11 45.68C203.24 45.68 199.5 42.16 199.5 36.84C199.5 31.52 203.24 28 208.11 28C212.98 28 216.72 31.52 216.72 36.84C216.72 42.16 212.98 45.68 208.11 45.68Z" fill="#662D91"/>
<path d="M181.02 0H169.92V11.1H181.02V0Z" fill="#FEFEFE"/>
</svg>
