<svg width="24" height="24" viewBox="0 0 24 24" fill="none" xmlns="http://www.w3.org/2000/svg">
<mask id="path-1-outside-1" maskUnits="userSpaceOnUse" x="1" y="1" width="22" height="22" fill="black">
<rect fill="white" x="1" y="1" width="22" height="22"/>
<path d="M15.3342 19.8675C14.8833 17.3992 14.2525 15.2233 13.4283 13.145L13.5117 13.3833H13.4858L13.46 13.3967C13.3211 13.4489 13.1344 13.5206 12.9 13.6117C12.6656 13.7028 12.2272 13.9156 11.585 14.25C10.8883 14.6117 10.3042 14.9658 9.74583 15.3533L9.80083 15.3167C9.16417 15.7717 8.60667 16.2617 8.10083 16.8008L8.095 16.8067C7.55667 17.3533 7.1075 17.9908 6.77167 18.6917L6.75333 18.7333L6.55833 18.59C8.0025 19.805 9.88333 20.5433 11.9367 20.5433H12.0042H12.0008H12.005C13.2075 20.5433 14.3525 20.295 15.39 19.8458L15.335 19.8675H15.3342ZM12.9258 11.9642C12.7436 11.5386 12.5136 11.0569 12.2358 10.5192C9.68833 11.2883 6.76083 11.7308 3.73 11.7308C3.63917 11.7308 3.54917 11.7308 3.45917 11.73H3.47333C3.465 11.8017 3.46 11.885 3.46 11.9692V12.005V12.0033V12.0383C3.46 13.1342 3.67 14.18 4.0525 15.1392L4.0325 15.0825C4.43167 16.095 4.9775 16.9642 5.65417 17.7142L5.6475 17.7067C6.1175 16.8833 6.65 16.1717 7.25917 15.5342L7.255 15.5383C7.80917 14.9408 8.41583 14.4075 9.07417 13.9417L9.11 13.9175C9.70889 13.5097 10.2753 13.1581 10.8092 12.8625C11.1692 12.6508 11.5958 12.4408 12.0375 12.2617L12.105 12.2375L12.5867 12.0683C12.6211 12.0594 12.6775 12.0444 12.7558 12.0233C12.8217 12.0058 12.8783 11.985 12.9325 11.9592L12.9258 11.9617V11.9642ZM11.5342 9.20083C10.4717 7.3025 9.42 5.69417 8.27333 4.16167L8.35667 4.27833C5.96833 5.42917 4.22167 7.58667 3.65333 10.185L3.64333 10.2417C6.45167 10.2358 9.16833 9.85583 11.7508 9.15L11.5342 9.20083ZM20.44 13.3542C19.3892 13.0292 18.1808 12.8425 16.9283 12.8425C16.2883 12.8425 15.66 12.8917 15.0458 12.9858L15.1142 12.9775C15.7725 14.6942 16.3492 16.7433 16.7458 18.8567L16.7808 19.0842C17.7475 18.4258 18.5508 17.6033 19.1692 16.6508L19.1892 16.6175C19.8 15.6867 20.2383 14.5867 20.4308 13.4042L20.4375 13.3558L20.44 13.3542ZM9.95833 3.70583C9.9475 3.70667 9.93833 3.71167 9.9325 3.71917C9.93833 3.7125 9.9475 3.70833 9.95667 3.7075L9.95833 3.70583ZM17.64 5.59333C16.185 4.27 14.2425 3.45917 12.1108 3.45917C12.0725 3.45917 12.035 3.45917 11.9967 3.46H12.0025C11.285 3.4625 10.59 3.5525 9.925 3.72L9.98417 3.7075C11.0967 5.15167 12.1567 6.77917 13.0867 8.48667L13.1842 8.68167C13.8458 8.43167 14.4042 8.16667 14.9358 7.8625L14.8767 7.89333C15.3625 7.62583 15.7733 7.36083 16.1642 7.07167L16.1333 7.09333C16.4467 6.85417 16.725 6.61167 16.9858 6.35083C17.1575 6.18667 17.3175 6.015 17.4658 5.83333L17.4742 5.82333L17.64 5.59333ZM20.5433 11.9092C20.54 9.87167 19.8075 8.00583 18.5925 6.5575L18.6033 6.57083L18.59 6.58417C18.5117 6.68806 18.4292 6.79444 18.3425 6.90333C18.1608 7.11 17.9758 7.29917 17.7808 7.4775L17.7758 7.4825C17.4933 7.7525 17.1925 8.01 16.8775 8.25167L16.8517 8.27083C15.9808 8.91333 14.9892 9.47833 13.9325 9.92167L13.8375 9.95667C14.0542 10.4167 14.245 10.8289 14.41 11.1933C14.4272 11.2378 14.4556 11.3117 14.495 11.415C14.525 11.5017 14.5583 11.5742 14.5958 11.6442L14.5917 11.6367C14.9028 11.5922 15.2261 11.5617 15.5617 11.545C15.8972 11.5283 16.2164 11.5197 16.5192 11.5192C16.8231 11.5192 17.1225 11.5256 17.4175 11.5383C17.7125 11.5511 17.9903 11.5683 18.2508 11.59C18.5114 11.6117 18.7558 11.6356 18.9842 11.6617C19.2125 11.6878 19.4208 11.7161 19.6092 11.7467L20.0842 11.825C20.2142 11.8467 20.3225 11.8661 20.4092 11.8833L20.5433 11.9092ZM22.0008 12.0008V12.0758C22.0008 13.8983 21.5025 15.6042 20.6342 17.065L20.6592 17.02C19.77 18.54 18.5392 19.7708 17.0667 20.6342L17.02 20.6592C15.5792 21.5025 13.8483 22 12 22C10.1517 22 8.42083 21.5025 6.9325 20.6333L6.98 20.6592C5.46 19.77 4.22917 18.5392 3.36583 17.0667L3.34083 17.02C2.4975 15.5792 2 13.8483 2 12C2 10.1517 2.4975 8.42083 3.36667 6.9325L3.34083 6.98C4.23 5.46 5.46083 4.22917 6.93333 3.36583L6.98 3.34083C8.42083 2.4975 10.1517 2 12 2C13.8483 2 15.5792 2.4975 17.0675 3.36667L17.02 3.34083C18.54 4.23 19.7708 5.46083 20.6342 6.93333L20.6592 6.98C21.5025 8.39583 22.0008 10.1017 22.0008 11.9242V12.0042V12V12.0008Z"/>
</mask>
<path d="M15.3342 19.8675C14.8833 17.3992 14.2525 15.2233 13.4283 13.145L13.5117 13.3833H13.4858L13.46 13.3967C13.3211 13.4489 13.1344 13.5206 12.9 13.6117C12.6656 13.7028 12.2272 13.9156 11.585 14.25C10.8883 14.6117 10.3042 14.9658 9.74583 15.3533L9.80083 15.3167C9.16417 15.7717 8.60667 16.2617 8.10083 16.8008L8.095 16.8067C7.55667 17.3533 7.1075 17.9908 6.77167 18.6917L6.75333 18.7333L6.55833 18.59C8.0025 19.805 9.88333 20.5433 11.9367 20.5433H12.0042H12.0008H12.005C13.2075 20.5433 14.3525 20.295 15.39 19.8458L15.335 19.8675H15.3342ZM12.9258 11.9642C12.7436 11.5386 12.5136 11.0569 12.2358 10.5192C9.68833 11.2883 6.76083 11.7308 3.73 11.7308C3.63917 11.7308 3.54917 11.7308 3.45917 11.73H3.47333C3.465 11.8017 3.46 11.885 3.46 11.9692V12.005V12.0033V12.0383C3.46 13.1342 3.67 14.18 4.0525 15.1392L4.0325 15.0825C4.43167 16.095 4.9775 16.9642 5.65417 17.7142L5.6475 17.7067C6.1175 16.8833 6.65 16.1717 7.25917 15.5342L7.255 15.5383C7.80917 14.9408 8.41583 14.4075 9.07417 13.9417L9.11 13.9175C9.70889 13.5097 10.2753 13.1581 10.8092 12.8625C11.1692 12.6508 11.5958 12.4408 12.0375 12.2617L12.105 12.2375L12.5867 12.0683C12.6211 12.0594 12.6775 12.0444 12.7558 12.0233C12.8217 12.0058 12.8783 11.985 12.9325 11.9592L12.9258 11.9617V11.9642ZM11.5342 9.20083C10.4717 7.3025 9.42 5.69417 8.27333 4.16167L8.35667 4.27833C5.96833 5.42917 4.22167 7.58667 3.65333 10.185L3.64333 10.2417C6.45167 10.2358 9.16833 9.85583 11.7508 9.15L11.5342 9.20083ZM20.44 13.3542C19.3892 13.0292 18.1808 12.8425 16.9283 12.8425C16.2883 12.8425 15.66 12.8917 15.0458 12.9858L15.1142 12.9775C15.7725 14.6942 16.3492 16.7433 16.7458 18.8567L16.7808 19.0842C17.7475 18.4258 18.5508 17.6033 19.1692 16.6508L19.1892 16.6175C19.8 15.6867 20.2383 14.5867 20.4308 13.4042L20.4375 13.3558L20.44 13.3542ZM9.95833 3.70583C9.9475 3.70667 9.93833 3.71167 9.9325 3.71917C9.93833 3.7125 9.9475 3.70833 9.95667 3.7075L9.95833 3.70583ZM17.64 5.59333C16.185 4.27 14.2425 3.45917 12.1108 3.45917C12.0725 3.45917 12.035 3.45917 11.9967 3.46H12.0025C11.285 3.4625 10.59 3.5525 9.925 3.72L9.98417 3.7075C11.0967 5.15167 12.1567 6.77917 13.0867 8.48667L13.1842 8.68167C13.8458 8.43167 14.4042 8.16667 14.9358 7.8625L14.8767 7.89333C15.3625 7.62583 15.7733 7.36083 16.1642 7.07167L16.1333 7.09333C16.4467 6.85417 16.725 6.61167 16.9858 6.35083C17.1575 6.18667 17.3175 6.015 17.4658 5.83333L17.4742 5.82333L17.64 5.59333ZM20.5433 11.9092C20.54 9.87167 19.8075 8.00583 18.5925 6.5575L18.6033 6.57083L18.59 6.58417C18.5117 6.68806 18.4292 6.79444 18.3425 6.90333C18.1608 7.11 17.9758 7.29917 17.7808 7.4775L17.7758 7.4825C17.4933 7.7525 17.1925 8.01 16.8775 8.25167L16.8517 8.27083C15.9808 8.91333 14.9892 9.47833 13.9325 9.92167L13.8375 9.95667C14.0542 10.4167 14.245 10.8289 14.41 11.1933C14.4272 11.2378 14.4556 11.3117 14.495 11.415C14.525 11.5017 14.5583 11.5742 14.5958 11.6442L14.5917 11.6367C14.9028 11.5922 15.2261 11.5617 15.5617 11.545C15.8972 11.5283 16.2164 11.5197 16.5192 11.5192C16.8231 11.5192 17.1225 11.5256 17.4175 11.5383C17.7125 11.5511 17.9903 11.5683 18.2508 11.59C18.5114 11.6117 18.7558 11.6356 18.9842 11.6617C19.2125 11.6878 19.4208 11.7161 19.6092 11.7467L20.0842 11.825C20.2142 11.8467 20.3225 11.8661 20.4092 11.8833L20.5433 11.9092ZM22.0008 12.0008V12.0758C22.0008 13.8983 21.5025 15.6042 20.6342 17.065L20.6592 17.02C19.77 18.54 18.5392 19.7708 17.0667 20.6342L17.02 20.6592C15.5792 21.5025 13.8483 22 12 22C10.1517 22 8.42083 21.5025 6.9325 20.6333L6.98 20.6592C5.46 19.77 4.22917 18.5392 3.36583 17.0667L3.34083 17.02C2.4975 15.5792 2 13.8483 2 12C2 10.1517 2.4975 8.42083 3.36667 6.9325L3.34083 6.98C4.23 5.46 5.46083 4.22917 6.93333 3.36583L6.98 3.34083C8.42083 2.4975 10.1517 2 12 2C13.8483 2 15.5792 2.4975 17.0675 3.36667L17.02 3.34083C18.54 4.23 19.7708 5.46083 20.6342 6.93333L20.6592 6.98C21.5025 8.39583 22.0008 10.1017 22.0008 11.9242V12.0042V12V12.0008Z" fill="#9D9D9D"/>
<path d="M15.3342 19.8675C14.8833 17.3992 14.2525 15.2233 13.4283 13.145L13.5117 13.3833H13.4858L13.46 13.3967C13.3211 13.4489 13.1344 13.5206 12.9 13.6117C12.6656 13.7028 12.2272 13.9156 11.585 14.25C10.8883 14.6117 10.3042 14.9658 9.74583 15.3533L9.80083 15.3167C9.16417 15.7717 8.60667 16.2617 8.10083 16.8008L8.095 16.8067C7.55667 17.3533 7.1075 17.9908 6.77167 18.6917L6.75333 18.7333L6.55833 18.59C8.0025 19.805 9.88333 20.5433 11.9367 20.5433H12.0042H12.0008H12.005C13.2075 20.5433 14.3525 20.295 15.39 19.8458L15.335 19.8675H15.3342ZM12.9258 11.9642C12.7436 11.5386 12.5136 11.0569 12.2358 10.5192C9.68833 11.2883 6.76083 11.7308 3.73 11.7308C3.63917 11.7308 3.54917 11.7308 3.45917 11.73H3.47333C3.465 11.8017 3.46 11.885 3.46 11.9692V12.005V12.0033V12.0383C3.46 13.1342 3.67 14.18 4.0525 15.1392L4.0325 15.0825C4.43167 16.095 4.9775 16.9642 5.65417 17.7142L5.6475 17.7067C6.1175 16.8833 6.65 16.1717 7.25917 15.5342L7.255 15.5383C7.80917 14.9408 8.41583 14.4075 9.07417 13.9417L9.11 13.9175C9.70889 13.5097 10.2753 13.1581 10.8092 12.8625C11.1692 12.6508 11.5958 12.4408 12.0375 12.2617L12.105 12.2375L12.5867 12.0683C12.6211 12.0594 12.6775 12.0444 12.7558 12.0233C12.8217 12.0058 12.8783 11.985 12.9325 11.9592L12.9258 11.9617V11.9642ZM11.5342 9.20083C10.4717 7.3025 9.42 5.69417 8.27333 4.16167L8.35667 4.27833C5.96833 5.42917 4.22167 7.58667 3.65333 10.185L3.64333 10.2417C6.45167 10.2358 9.16833 9.85583 11.7508 9.15L11.5342 9.20083ZM20.44 13.3542C19.3892 13.0292 18.1808 12.8425 16.9283 12.8425C16.2883 12.8425 15.66 12.8917 15.0458 12.9858L15.1142 12.9775C15.7725 14.6942 16.3492 16.7433 16.7458 18.8567L16.7808 19.0842C17.7475 18.4258 18.5508 17.6033 19.1692 16.6508L19.1892 16.6175C19.8 15.6867 20.2383 14.5867 20.4308 13.4042L20.4375 13.3558L20.44 13.3542ZM9.95833 3.70583C9.9475 3.70667 9.93833 3.71167 9.9325 3.71917C9.93833 3.7125 9.9475 3.70833 9.95667 3.7075L9.95833 3.70583ZM17.64 5.59333C16.185 4.27 14.2425 3.45917 12.1108 3.45917C12.0725 3.45917 12.035 3.45917 11.9967 3.46H12.0025C11.285 3.4625 10.59 3.5525 9.925 3.72L9.98417 3.7075C11.0967 5.15167 12.1567 6.77917 13.0867 8.48667L13.1842 8.68167C13.8458 8.43167 14.4042 8.16667 14.9358 7.8625L14.8767 7.89333C15.3625 7.62583 15.7733 7.36083 16.1642 7.07167L16.1333 7.09333C16.4467 6.85417 16.725 6.61167 16.9858 6.35083C17.1575 6.18667 17.3175 6.015 17.4658 5.83333L17.4742 5.82333L17.64 5.59333ZM20.5433 11.9092C20.54 9.87167 19.8075 8.00583 18.5925 6.5575L18.6033 6.57083L18.59 6.58417C18.5117 6.68806 18.4292 6.79444 18.3425 6.90333C18.1608 7.11 17.9758 7.29917 17.7808 7.4775L17.7758 7.4825C17.4933 7.7525 17.1925 8.01 16.8775 8.25167L16.8517 8.27083C15.9808 8.91333 14.9892 9.47833 13.9325 9.92167L13.8375 9.95667C14.0542 10.4167 14.245 10.8289 14.41 11.1933C14.4272 11.2378 14.4556 11.3117 14.495 11.415C14.525 11.5017 14.5583 11.5742 14.5958 11.6442L14.5917 11.6367C14.9028 11.5922 15.2261 11.5617 15.5617 11.545C15.8972 11.5283 16.2164 11.5197 16.5192 11.5192C16.8231 11.5192 17.1225 11.5256 17.4175 11.5383C17.7125 11.5511 17.9903 11.5683 18.2508 11.59C18.5114 11.6117 18.7558 11.6356 18.9842 11.6617C19.2125 11.6878 19.4208 11.7161 19.6092 11.7467L20.0842 11.825C20.2142 11.8467 20.3225 11.8661 20.4092 11.8833L20.5433 11.9092ZM22.0008 12.0008V12.0758C22.0008 13.8983 21.5025 15.6042 20.6342 17.065L20.6592 17.02C19.77 18.54 18.5392 19.7708 17.0667 20.6342L17.02 20.6592C15.5792 21.5025 13.8483 22 12 22C10.1517 22 8.42083 21.5025 6.9325 20.6333L6.98 20.6592C5.46 19.77 4.22917 18.5392 3.36583 17.0667L3.34083 17.02C2.4975 15.5792 2 13.8483 2 12C2 10.1517 2.4975 8.42083 3.36667 6.9325L3.34083 6.98C4.23 5.46 5.46083 4.22917 6.93333 3.36583L6.98 3.34083C8.42083 2.4975 10.1517 2 12 2C13.8483 2 15.5792 2.4975 17.0675 3.36667L17.02 3.34083C18.54 4.23 19.7708 5.46083 20.6342 6.93333L20.6592 6.98C21.5025 8.39583 22.0008 10.1017 22.0008 11.9242V12.0042V12V12.0008Z" stroke="#9D9D9D" stroke-width="0.4" mask="url(#path-1-outside-1)"/>
</svg>
