<svg width="24" height="24" viewBox="0 0 24 24" fill="none" xmlns="http://www.w3.org/2000/svg">
<path fill-rule="evenodd" clip-rule="evenodd" d="M8.48997 1.14697H15.51C17.93 1.14697 19.9 3.06196 19.9 5.36096C19.9 6.70496 19.226 7.91897 18.182 8.69397C19.226 9.46997 19.9 10.683 19.9 12.028C19.9 14.326 17.93 16.241 15.51 16.241C14.524 16.241 13.613 15.924 12.88 15.392V18.694C12.88 20.993 10.911 22.908 8.48997 22.908C6.06997 22.908 4.09998 20.993 4.09998 18.694C4.09998 17.35 4.77396 16.137 5.81796 15.361C4.77396 14.585 4.09998 13.372 4.09998 12.028C4.09998 10.683 4.77396 9.46997 5.81796 8.69397C4.77396 7.91897 4.09998 6.70496 4.09998 5.36096C4.09998 3.06196 6.06997 1.14697 8.48997 1.14697ZM11.12 16.241H8.48997C7.05998 16.241 5.85997 17.336 5.85997 18.694C5.85997 20.053 7.05998 21.147 8.48997 21.147C9.92097 21.147 11.12 20.053 11.12 18.694V16.241ZM12.88 12.028C12.88 10.669 14.079 9.57397 15.51 9.57397C16.94 9.57397 18.14 10.669 18.14 12.028C18.14 13.386 16.94 14.481 15.51 14.481C14.079 14.481 12.88 13.386 12.88 12.028ZM8.45697 9.57498C7.04097 9.59098 5.85997 10.68 5.85997 12.028C5.85997 13.386 7.05998 14.481 8.48997 14.481H11.12V9.57397H8.48997L8.45697 9.57498ZM11.12 7.81396V2.90796H8.48997C7.05998 2.90796 5.85997 4.00196 5.85997 5.36096C5.85997 6.71996 7.05998 7.81396 8.48997 7.81396H11.12ZM12.88 7.81396H15.51C16.94 7.81396 18.14 6.71996 18.14 5.36096C18.14 4.00196 16.94 2.90796 15.51 2.90796H12.88V7.81396Z" fill="#9D9D9D"/>
</svg>
