<svg width="24" height="24" viewBox="0 0 24 24" fill="none" xmlns="http://www.w3.org/2000/svg">
<path fill-rule="evenodd" clip-rule="evenodd" d="M12.2532 2C6.59124 2 2 6.59022 2 12.2532C2 16.7835 4.93785 20.6266 9.01174 21.9825C9.524 22.0776 9.71212 21.7601 9.71212 21.4893C9.71212 21.2448 9.70261 20.4371 9.6982 19.5804C6.84576 20.2006 6.24386 18.3706 6.24386 18.3706C5.77745 17.1855 5.10543 16.8704 5.10543 16.8704C4.17499 16.234 5.17555 16.2473 5.17555 16.2473C6.20498 16.3194 6.74728 17.3039 6.74728 17.3039C7.66176 18.871 9.14588 18.418 9.73097 18.1562C9.82299 17.4935 10.0887 17.041 10.3819 16.785C8.10457 16.5261 5.71038 15.6467 5.71038 11.718C5.71038 10.5986 6.11108 9.68394 6.76697 8.96573C6.66035 8.70765 6.30939 7.66481 6.86613 6.25252C6.86613 6.25252 7.72696 5.97695 9.68631 7.30351C10.5044 7.07616 11.3816 6.96189 12.2532 6.95799C13.1242 6.96189 14.002 7.07582 14.8216 7.30317C16.7785 5.97661 17.6383 6.25218 17.6383 6.25218C18.1964 7.6643 17.8455 8.70731 17.739 8.96539C18.3964 9.6836 18.7943 10.5982 18.7943 11.7177C18.7943 15.6557 16.3957 16.5227 14.1125 16.7767C14.4805 17.0949 14.8081 17.719 14.8081 18.6754C14.8081 20.0473 14.7963 21.1514 14.7963 21.4891C14.7963 21.762 14.981 22.0817 15.5005 21.981C19.5721 20.6237 22.5065 16.7818 22.5065 12.2532C22.5063 6.59056 17.9156 2.00017 12.2532 2.00017V2Z" fill="#9D9D9D"/>
<path d="M5.88342 16.7212C5.86084 16.7721 5.7807 16.7874 5.70769 16.7526C5.63298 16.7193 5.59138 16.6499 5.61549 16.5988C5.63757 16.5461 5.71788 16.5317 5.79207 16.5668C5.86678 16.6003 5.90923 16.6704 5.88325 16.7213L5.88342 16.7212ZM6.29872 17.1845C6.24999 17.2299 6.1544 17.2088 6.08954 17.137C6.02231 17.0657 6.00974 16.9701 6.05949 16.9241C6.11009 16.8789 6.20279 16.9003 6.27003 16.9716C6.33692 17.0439 6.35017 17.1387 6.29889 17.1847L6.29872 17.1845ZM6.70316 17.7749C6.64034 17.8187 6.53744 17.7778 6.47394 17.6866C6.41112 17.5952 6.41112 17.4857 6.47564 17.4421C6.53897 17.3983 6.64034 17.4378 6.70485 17.5282C6.76734 17.6207 6.76734 17.7302 6.70316 17.7747V17.7749ZM7.25684 18.3455C7.20081 18.4075 7.08094 18.3909 6.99332 18.3065C6.90385 18.2238 6.87889 18.1061 6.93509 18.0443C6.99214 17.9822 7.11252 17.9995 7.20064 18.0834C7.29011 18.1659 7.31711 18.2837 7.25718 18.3454L7.25684 18.3455ZM8.02088 18.6768C7.99592 18.7571 7.88081 18.7936 7.7645 18.7593C7.64854 18.7242 7.57264 18.6303 7.59641 18.5491C7.62018 18.4681 7.73615 18.4303 7.85313 18.4668C7.9691 18.5017 8.04499 18.5951 8.02088 18.6768ZM8.86015 18.7381C8.86303 18.8226 8.76455 18.8926 8.64282 18.8943C8.52006 18.8972 8.42073 18.8286 8.41955 18.7454C8.41955 18.66 8.51598 18.5909 8.63857 18.5885C8.76031 18.5863 8.86031 18.6542 8.86031 18.7379L8.86015 18.7381ZM9.64083 18.6053C9.65543 18.6877 9.57071 18.7724 9.44965 18.795C9.3308 18.817 9.22044 18.7658 9.20515 18.6841C9.19055 18.5995 9.27681 18.5148 9.39566 18.4929C9.51689 18.472 9.62555 18.5218 9.64083 18.6055V18.6053Z" fill="#9D9D9D"/>
</svg>
