<svg width="24" height="24" viewBox="0 0 24 24" fill="none" xmlns="http://www.w3.org/2000/svg">
<path fill-rule="evenodd" clip-rule="evenodd" d="M3.106 6H21.8928C22.5018 6 23 6.3416 23 6.7592V6.8408C23 7.2584 22.5018 7.6 21.8928 7.6H3.106C2.497 7.6 2 7.2584 2 6.8408V6.7592C2 6.3416 2.497 6 3.106 6ZM21.8928 11H3.106C2.497 11 2 11.3416 2 11.7592V11.8408C2 12.2584 2.497 12.6 3.106 12.6H21.8928C22.5018 12.6 23 12.2584 23 11.8408V11.7592C23 11.3416 22.5018 11 21.8928 11ZM21.8928 16H3.106C2.497 16 2 16.3416 2 16.7592V16.8408C2 17.2584 2.497 17.6 3.106 17.6H21.8928C22.5018 17.6 23 17.2584 23 16.8408V16.7592C23 16.3416 22.5018 16 21.8928 16Z" fill="#7E21F5"/>
</svg>
