<svg width="24" height="24" viewBox="0 0 24 24" fill="none" xmlns="http://www.w3.org/2000/svg">
<path fill-rule="evenodd" clip-rule="evenodd" d="M3.106 6H21.8928C22.5018 6 23 6.427 23 6.949V7.051C23 7.573 22.5018 8 21.8928 8H3.106C2.497 8 2 7.573 2 7.051V6.949C2 6.427 2.497 6 3.106 6ZM21.8928 11H3.106C2.497 11 2 11.427 2 11.949V12.051C2 12.573 2.497 13 3.106 13H21.8928C22.5018 13 23 12.573 23 12.051V11.949C23 11.427 22.5018 11 21.8928 11ZM21.8928 16H3.106C2.497 16 2 16.427 2 16.949V17.051C2 17.573 2.497 18 3.106 18H21.8928C22.5018 18 23 17.573 23 17.051V16.949C23 16.427 22.5018 16 21.8928 16Z" fill="#7E21F5"/>
</svg>
