<svg width="24" height="24" viewBox="0 0 24 24" fill="none" xmlns="http://www.w3.org/2000/svg">
<path fill-rule="evenodd" clip-rule="evenodd" d="M19.0165 5.81993V5.82206V5.81993ZM7.85715 17.8718C7.88265 17.8718 7.91027 17.8729 7.93577 17.875C13.9867 17.8357 17.5981 13.2128 17.5981 8.74392C17.5981 8.33805 17.8064 8.07561 17.9912 7.84293C18.1591 7.63043 18.4194 7.30318 18.651 6.83143C17.8085 6.82293 17.0562 6.44893 16.6185 5.93681C16.1606 5.447 15.5029 5.14737 14.7931 5.12612C14.1089 5.0985 13.4108 5.362 12.8923 5.85393C12.2017 6.50949 11.9063 7.49868 12.1209 8.43367L12.3983 9.64385L11.1594 9.73097C7.9549 9.9711 5.73428 8.59942 4.2096 7.17993C4.21597 9.32617 4.92891 12.1896 8.16952 14.0362L9.18739 14.6163L8.51058 15.5736C7.80615 16.5713 6.74578 17.2078 5.66628 17.6147C6.37922 17.7847 7.11234 17.8718 7.84334 17.8718H7.85608H7.85715ZM7.85715 20C7.82952 20 7.79977 19.9989 7.77215 19.9968C6.06897 19.9851 4.36047 19.5888 2.82623 18.8461C2.24929 18.5656 1.92311 17.9515 2.01554 17.314C2.10904 16.6691 2.60417 16.1633 3.24591 16.0592C4.35622 15.8765 5.27741 15.5513 5.94465 15.1168C1.82536 12.0366 1.93373 7.42537 2.20042 5.4725C2.27904 4.90087 2.68598 4.42381 3.23635 4.257C3.79522 4.087 4.37428 4.257 4.75678 4.69156C6.38878 6.54137 8.01971 7.47105 9.9322 7.61236C9.98745 6.37456 10.5145 5.18137 11.4293 4.31225C12.3611 3.42719 13.5798 2.96394 14.859 3.00219C16.1393 3.0415 17.3272 3.58125 18.2027 4.52156C18.2919 4.62356 18.6255 4.80844 19.0282 4.62781C19.5563 4.39088 20.1566 4.4695 20.5944 4.835C21.031 5.19731 21.217 5.76787 21.081 6.32356C20.7378 7.73774 20.0599 8.64936 19.7178 9.08605C19.5393 14.5101 15.1321 20 7.85715 20Z" fill="#9D9D9D"/>
</svg>
